<svg xmlns="http://www.w3.org/2000/svg" width="1012" height="236" viewBox="0 0 1012 236">
  <path id="bg" fill="#0d1117" fill-rule="evenodd" d="M0 0h1012v236H0V0z" clip-rule="evenodd"/>
  <g id="l1">
    <path fill="#ffffff" d="M455.3 94.2h6.8v34.6h-6.8zm23.2 9.6c-7.9 0-11.8 5.4-11.8 13.1 0 6.4 3.5 12.5 11.6 12.5 7.7 0 10.4-4.9 11.3-7.9h-6.8c-.6 1.5-1.5 2.6-4.3 2.6-3.4 0-4.9-3-4.9-6.1h16.2c.1-.7.1-1.2.1-2.1-.1-6.1-2.9-12.1-11.4-12.1zm-4.8 10c.3-3 1.6-5.3 4.8-5.3 4 0 4.4 2.4 4.5 5.3h-9.3z"/>
    <path fill="#ff7a4c" d="M436.5 113.7h13.2v5.9h-13.2z"/>
    <path fill="#ffffff" d="M504 122.8c-.5-2.4-2.5-10.2-4.8-18.5h-7.3l8.3 24.5h7.1l8.7-24.5h-6.8c-2.1 7.2-4.2 14.5-5.2 18.5zm-76-25.2h-6.8v6.6h-3.8v5.1h3.8v12.9c0 4.3 1.6 6.8 6.4 6.8 1.4 0 3.5 0 4.6-.5V124c-.3.1-1.2.1-1.5.1-2 0-2.6-.7-2.6-2.6v-12.1h4.8v-5.1H428v-6.7zm117.3-3.4h6.8v34.6h-6.8zm-15.7 9.6c-8.1 0-12 5.4-12 13.1 0 6.4 3.5 12.5 11.6 12.5 7.7 0 10.4-4.9 11.3-7.9h-6.8c-.6 1.5-1.5 2.6-4.3 2.6-3.4 0-4.9-3-4.9-6.1h16.2c.1-.7.1-1.2.1-2.1-.2-6.1-3-12.1-11.2-12.1zm-5.1 10c.3-3 1.6-5.3 4.9-5.3 3.2 0 4.3 2.4 4.4 5.3h-9.3zm-230.8-10c-3.6 0-6 1.5-7 3.1V94.2h-6.8v34.6h7c-.4-.6-.3-1.5-.3-2.3 1.2 1.8 2.8 2.9 6.4 2.9 7.1 0 10.7-6.2 10.7-13.3 0-6.9-3.3-12.3-10-12.3zm-2.1 20.2c-4 0-5.2-3.2-5.2-7.3 0-5 1.4-7.5 5.3-7.5 3.7 0 5.2 3 5.2 7.1-.1 4.6-1.9 7.7-5.3 7.7zm49.3-26.4h-6.8v6.6h-3.8v5.1h3.8v12.9c0 4.3 1.6 6.8 6.4 6.8 1.4 0 3.2 0 4.6-.5V124c-.5.1-1.2.1-1.5.1-2 0-2.6-.7-2.6-2.6v-12.1h4.8v-5.1H341v-6.7zm-21.7 15.7c-3.8-.9-4.7-1.5-4.7-2.1 0-1.8.7-2.8 3-2.8 3.2 0 4.5 1.7 4 2.6h6.5c-.2-3.3-2.7-7.3-10.2-7.3-7.4 0-9.9 3.7-9.9 7.3 0 3.5 1.3 5.9 9.3 8.3 3.5 1 4.6 1.1 4.6 2.6s-.9 2.4-3.4 2.4-4.1-1.1-4.6-3.1h-6.7c.5 4.3 3.6 7.9 11.1 7.9 8 0 10.6-3.7 10.6-7.1-.3-4-1.4-6.8-9.6-8.7zm85.1-4.3c2.7 0 3.8 1.4 4.2 3.4h6.6c-.1-2.8-2.4-8.6-10.6-8.6-7.6 0-11.8 5.7-11.8 12.9 0 7.4 3.7 12.7 11.3 12.7 7.3 0 10.2-4.2 11-8.5h-6.7c-.3 1.8-1.9 3.8-4.2 3.8-3 0-4.8-3-4.8-7.7.1-5.3 1.9-8 5-8zm-130.5 3.2c0-5.2-3.2-7.9-10.1-8.4-7.5-.1-10.2 3.4-10.5 7.8h6.5c.3-1.8.9-3 3.9-3s3.7 1.7 3.7 3.5v1.5h-3.5c-7.2 0-11.7 2.6-11.7 8.2 0 3.8 2.5 7.7 8.4 7.7 4.3 0 6-1.6 6.9-3 0 .6.2 1.9.4 2.4h6.4c-.1-.6-.3-4-.3-5.7v-11zm-6.6 6.1c0 3.2-.5 6.2-4.8 6.2-2.4 0-3.5-1.5-3.5-3.3 0-2.4 1.5-3.6 5.6-3.6h2.8v.7zm120.7-6.1c0-5.2-3.6-7.9-10.1-8.4-7.5-.1-10.2 3.4-10.5 7.8h6.5c.3-1.8.9-3 3.8-3 3.3 0 3.8 1.7 3.8 3.5v1.5h-3.5c-7.2 0-11.7 2.6-11.7 8.2 0 3.8 2.5 7.7 8.4 7.7 4.3 0 6-1.6 6.9-3 0 .6.9 1.9.3 2.4h6.5c-.1-.6-.3-4-.3-5.7v-11zm-6.6 6.1c0 3.2-.5 6.2-4.3 6.2-3 0-4.1-1.5-4.1-3.3 0-2.4 1.5-3.6 5.6-3.6h2.8v.7zm-24.8-9.7c0-1.3-.1-3.8-.2-4.3h-6.7v24.6h6.8v-10.7c0-6.4 3.4-8 7.9-7.9v-6.4c-4.1.1-6.7 1.9-7.8 4.7z"/>
    <path fill="none" stroke="#f88343" stroke-width="2" d="M102.7 18.3C1.8 47-75.7 243 162.1 195.1c94.5-19.1 27-201.3-59.4-176.8z"/>
    <path fill="none" stroke="#f91a79" stroke-width="2" d="M173.2 42.2C80.6-7.2-111.3 80.2 93 210.6c81.3 51.9 159-126.3 80.2-168.4z"/>
  </g>
  <g id="l2">
    <path fill="#c64654" fill-rule="evenodd" d="m110.4 128.9 48.8 24.2-48.8 23.3v-47.5z" clip-rule="evenodd"/>
    <path fill="#d084db" fill-rule="evenodd" d="M110.4 53v47.5L61.6 76.3 110.4 53z" clip-rule="evenodd"/>
    <path fill="#1a382a" fill-rule="evenodd" d="m110.4 128.9 48.8 24.2V76.3L110.4 53v75.9z" clip-rule="evenodd"/>
    <path fill="#8083a5" fill-rule="evenodd" d="m89.5 139.3 20.9 10.4v-20.8z" clip-rule="evenodd"/>
    <path fill="#5b5b7e" fill-rule="evenodd" d="M61.6 76.3v31.1L93 91.8z" clip-rule="evenodd"/>
    <path fill="#6aeb64" d="m159.1 107.4-48.7-24.2L93 91.8l17.4 8.7v30.2z"/>
    <path fill="#80ff96" d="M110.4 100.5 93 91.8l-31.4 15.6 47 22.4 1.8.9z"/>
    <path fill="#34894c" fill-rule="evenodd" d="m110.4 100.5 48.8-24.2v49.2l-48.8 24.2v-49.2z" clip-rule="evenodd" opacity=".82"/>
    <path fill="#0d1117" fill-rule="evenodd" d="m110.4 149.7 48.8-24.2v7.8l-48.8 23.3v-6.9z" clip-rule="evenodd" opacity=".459"/>
    <path fill="#e454b3" fill-rule="evenodd" d="m61.6 153.1 48.8 23.3v-19.8L82 143z" clip-rule="evenodd"/>
    <path fill="#67606e" d="m89.5 139.3-27.9-13.8v7.8L82 143z"/>
    <path fill="#bff1a2" fill-rule="evenodd" d="m82 143 28.4 13.6v-6.9l-20.9-10.4z" clip-rule="evenodd"/>
    <path fill="#4e3d6c" fill-rule="evenodd" d="M61.6 133.3v19.8L82 143z" clip-rule="evenodd"/>
    <path fill="#5a8d83" fill-rule="evenodd" d="m108.6 129.8-47-22.4v18.1l27.9 13.8z" clip-rule="evenodd"/>
    <path fill="#d57e98" d="m110.4 149.7-20.9-10.4L82 143l28.4 13.6z"/>
    <path fill="#348e45" fill-rule="evenodd" d="m111.3 100-1 .5-48.7-24.2 1-.5 48.7 24.2z" clip-rule="evenodd"/>
    <path fill="#35603e" fill-rule="evenodd" d="M110.4 149.7v.9l-48.8-24.2v-.9l48.8 24.2z" clip-rule="evenodd"/>
    <path fill="#133121" fill-rule="evenodd" d="M110.4 149.7v.9l48.8-24.2v-.9l-48.8 24.2z" clip-rule="evenodd"/>
  </g>
</svg>
